<svg xmlns="http://www.w3.org/2000/svg" xml:space="preserve" width="150px" height="100px" version="1.1" style="shape-rendering:geometricPrecision; text-rendering:geometricPrecision; image-rendering:optimizeQuality; fill-rule:evenodd; clip-rule:evenodd" viewBox="0 0 150 100" xmlns:xlink="http://www.w3.org/1999/xlink">
 <g id="Background" visibility="hidden">
  <metadata id="CorelCorpID_0Corel-Layer"/>
  <rect fill="#D2D3D5" width="150" height="100"/>
 </g>
 <g id="Logo_x0020_Dark" visibility="hidden">
  <metadata id="CorelCorpID_1Corel-Layer"/>
  <g id="_1971097191904">
   <polygon fill="#FEFEFE" points="110.9,74.47 142,74.47 142,86.27 96.25,86.27 96.25,15.17 110.9,15.17 "/>
   <polygon fill="#ED2D67" points="24.46,13.72 42.73,65.29 60.9,13.72 80.13,13.72 80.13,84.82 65.43,84.82 65.43,65.39 66.9,31.84 47.71,84.82 37.65,84.82 18.51,31.89 19.98,65.39 19.98,84.82 5.33,84.82 5.33,13.72 "/>
  </g>
 </g>
 <g id="Logo_x0020_Light">
  <metadata id="CorelCorpID_2Corel-Layer"/>
  <g id="_1971207361488">
   <polygon fill="#373435" points="110.9,74.47 142,74.47 142,86.27 96.25,86.27 96.25,15.17 110.9,15.17 "/>
   <polygon fill="#ED2D67" points="24.46,13.72 42.73,65.29 60.9,13.72 80.13,13.72 80.13,84.82 65.43,84.82 65.43,65.39 66.9,31.84 47.71,84.82 37.65,84.82 18.51,31.89 19.98,65.39 19.98,84.82 5.33,84.82 5.33,13.72 "/>
  </g>
 </g>
</svg>
