<svg xmlns="http://www.w3.org/2000/svg" xml:space="preserve" width="780px" height="100px" version="1.1" style="shape-rendering:geometricPrecision; text-rendering:geometricPrecision; image-rendering:optimizeQuality; fill-rule:evenodd; clip-rule:evenodd" viewBox="0 0 780 100" xmlns:xlink="http://www.w3.org/1999/xlink">
 <g id="Layer_x0020_1" visibility="hidden">
  <g id="_2223173777776">
   <polygon fill="#373435" points="477.41,76.36 511.1,76.36 511.1,84.06 467.98,84.06 467.98,12.96 477.41,12.96 "/>
   <path id="1" fill="#373435" d="M542.31 85.06c-7.15,0 -12.98,-2.35 -17.48,-7.05 -4.48,-4.72 -6.73,-11 -6.73,-18.89l0 -1.66c0,-5.24 1,-9.92 3,-14.04 2,-4.11 4.8,-7.35 8.4,-9.67 3.6,-2.33 7.5,-3.49 11.7,-3.49 6.86,0 12.2,2.26 16.01,6.78 3.8,4.53 5.72,11.02 5.72,19.45l0 3.77 -35.8 0c0.13,5.2 1.65,9.4 4.57,12.6 2.91,3.2 6.61,4.8 11.11,4.8 3.19,0 5.89,-0.65 8.1,-1.95 2.22,-1.3 4.15,-3.02 5.82,-5.15l5.52 4.3c-4.44,6.8 -11.09,10.2 -19.94,10.2zm-1.11 -47.4c-3.65,0 -6.7,1.33 -9.19,4 -2.46,2.66 -4,6.4 -4.58,11.2l26.47 0 0 -0.69c-0.27,-4.61 -1.5,-8.18 -3.72,-10.71 -2.22,-2.54 -5.22,-3.8 -8.98,-3.8z"/>
   <path id="2" fill="#373435" d="M583.2 84.06l-9.04 0 0 -52.8 9.04 0 0 52.8zm-9.77 -66.85c0,-1.47 0.45,-2.72 1.33,-3.74 0.9,-1.02 2.24,-1.51 3.98,-1.51 1.77,0 3.11,0.49 4.01,1.51 0.91,1.02 1.36,2.27 1.36,3.74 0,1.46 -0.45,2.7 -1.36,3.68 -0.9,0.98 -2.24,1.46 -4.01,1.46 -1.74,0 -3.08,-0.48 -3.98,-1.46 -0.88,-0.98 -1.33,-2.22 -1.33,-3.68z"/>
   <polygon id="3" fill="#373435" points="607.45,84.06 598.41,84.06 598.41,9.06 607.45,9.06 "/>
   <path id="4" fill="#373435" d="M619.5 57.17c0,-5.18 1.01,-9.83 3.05,-13.96 2.03,-4.15 4.86,-7.34 8.5,-9.59 3.61,-2.25 7.76,-3.36 12.41,-3.36 7.2,0 13.02,2.48 17.47,7.46 4.43,4.99 6.65,11.62 6.65,19.89l0 0.63c0,5.15 -0.98,9.77 -2.95,13.85 -1.97,4.08 -4.78,7.27 -8.45,9.55 -3.65,2.28 -7.87,3.42 -12.62,3.42 -7.16,0 -12.96,-2.49 -17.4,-7.47 -4.45,-4.98 -6.66,-11.58 -6.66,-19.78l0 -0.64zm9.08 1.05c0,5.85 1.35,10.57 4.07,14.12 2.71,3.55 6.36,5.32 10.91,5.32 4.59,0 8.24,-1.8 10.94,-5.4 2.7,-3.6 4.05,-8.64 4.05,-15.12 0,-5.8 -1.37,-10.48 -4.12,-14.08 -2.75,-3.6 -6.4,-5.4 -10.97,-5.4 -4.45,0 -8.05,1.76 -10.78,5.31 -2.73,3.55 -4.1,8.64 -4.1,15.25zm31.92 -47.42c0,3.51 -1,6.34 -3,8.51 -2.02,2.16 -4.52,3.25 -7.5,3.25 -1.34,0 -2.5,-0.17 -3.47,-0.49 -0.98,-0.32 -2.25,-0.98 -3.83,-1.98 -1.59,-1 -2.72,-1.62 -3.42,-1.82 -0.7,-0.21 -1.52,-0.31 -2.42,-0.31 -1.33,0 -2.48,0.49 -3.41,1.51 -0.95,1.02 -1.42,2.3 -1.42,3.89l-6.07 -0.34c0,-3.46 0.99,-6.31 2.97,-8.58 1.97,-2.25 4.47,-3.38 7.48,-3.38 1.15,0 2.17,0.16 3.09,0.49 0.91,0.34 2.15,0.99 3.71,1.95 1.55,0.97 2.75,1.61 3.59,1.91 0.83,0.3 1.75,0.45 2.75,0.45 1.4,0 2.56,-0.57 3.5,-1.7 0.93,-1.12 1.38,-2.44 1.38,-3.94l6.07 0.58z"/>
   <path id="5" fill="#373435" d="M700.86 85.06c-7.15,0 -12.98,-2.35 -17.48,-7.05 -4.48,-4.72 -6.73,-11 -6.73,-18.89l0 -1.66c0,-5.24 1,-9.92 3,-14.04 2,-4.11 4.8,-7.35 8.4,-9.67 3.6,-2.33 7.5,-3.49 11.7,-3.49 6.86,0 12.2,2.26 16.01,6.78 3.8,4.53 5.72,11.02 5.72,19.45l0 3.77 -35.8 0c0.13,5.2 1.65,9.4 4.57,12.6 2.91,3.2 6.61,4.8 11.11,4.8 3.19,0 5.89,-0.65 8.1,-1.95 2.22,-1.3 4.15,-3.02 5.82,-5.15l5.52 4.3c-4.44,6.8 -11.09,10.2 -19.94,10.2zm-1.11 -47.4c-3.65,0 -6.7,1.33 -9.19,4 -2.46,2.66 -4,6.4 -4.58,11.2l26.47 0 0 -0.69c-0.27,-4.61 -1.5,-8.18 -3.72,-10.71 -2.22,-2.54 -5.22,-3.8 -8.98,-3.8z"/>
   <path id="6" fill="#373435" d="M762.7 70.04c0,-2.43 -0.92,-4.33 -2.77,-5.67 -1.83,-1.35 -5.03,-2.51 -9.62,-3.5 -4.56,-0.96 -8.2,-2.15 -10.88,-3.51 -2.68,-1.37 -4.67,-2.99 -5.95,-4.89 -1.3,-1.88 -1.93,-4.13 -1.93,-6.73 0,-4.33 1.83,-8 5.48,-10.98 3.67,-3 8.35,-4.5 14.05,-4.5 5.98,0 10.85,1.54 14.57,4.63 3.73,3.1 5.6,7.05 5.6,11.87l-9.09 0c0,-2.49 -1.05,-4.62 -3.15,-6.42 -2.1,-1.78 -4.75,-2.68 -7.93,-2.68 -3.3,0 -5.87,0.71 -7.72,2.15 -1.87,1.43 -2.78,3.3 -2.78,5.61 0,2.19 0.87,3.82 2.58,4.94 1.74,1.1 4.85,2.16 9.35,3.16 4.52,1.02 8.17,2.22 10.97,3.62 2.8,1.4 4.87,3.1 6.22,5.07 1.35,1.96 2.03,4.36 2.03,7.21 0,4.72 -1.88,8.5 -5.67,11.35 -3.76,2.85 -8.66,4.29 -14.7,4.29 -4.23,0 -7.96,-0.75 -11.23,-2.25 -3.25,-1.5 -5.8,-3.59 -7.64,-6.27 -1.83,-2.68 -2.76,-5.6 -2.76,-8.72l9.03 0c0.17,3.02 1.38,5.42 3.65,7.19 2.25,1.76 5.25,2.65 8.95,2.65 3.42,0 6.17,-0.69 8.24,-2.07 2.06,-1.38 3.1,-3.23 3.1,-5.55z"/>
   <polygon fill="#ED2D67" points="21.45,11.51 50.7,78.76 80.05,11.51 83.9,11.51 83.9,82.61 81.27,82.61 81.27,15.41 51.78,82.61 49.68,82.61 20.33,15.76 20.33,82.61 17.7,82.61 17.7,11.51 "/>
   <path id="1" fill="#ED2D67" d="M141.77 61.31l-34.8 0 -7.92 21.3 -2.88 0 26.61 -71.1 3.22 0 26.62 71.1 -2.89 0 -7.96 -21.3zm-33.84 -2.6l32.87 0 -16.4 -44.04 -16.47 44.04z"/>
   <path id="2" fill="#ED2D67" d="M191.08 52.11l-24.65 0 0 30.5 -2.65 0 0 -71.1 22.67 0c7.13,0 12.8,1.83 17.02,5.5 4.21,3.68 6.31,8.66 6.31,14.96 0,4.84 -1.5,9.07 -4.51,12.69 -3.02,3.61 -6.85,5.86 -11.5,6.75l19 30.51 0 0.69 -2.79 0 -18.9 -30.5zm-24.65 -2.6l22.4 0c5.47,0 9.9,-1.67 13.27,-4.99 3.37,-3.31 5.05,-7.5 5.05,-12.55 0,-5.53 -1.87,-9.88 -5.58,-13.08 -3.74,-3.18 -8.84,-4.78 -15.32,-4.78l-19.82 0 0 35.4z"/>
   <polygon id="3" fill="#ED2D67" points="243.5,45.21 232.13,55.71 232.13,82.61 229.5,82.61 229.5,11.51 232.13,11.51 232.13,52.62 243.85,41.16 273.33,11.51 277.15,11.51 245.47,43.39 279.58,82.61 276.17,82.61 "/>
   <polygon id="4" fill="#ED2D67" points="331.23,47.31 295.6,47.31 295.6,80.01 336.22,80.01 336.22,82.61 292.95,82.61 292.95,11.51 336.22,11.51 336.22,14.11 295.6,14.11 295.6,44.71 331.23,44.71 "/>
   <polygon id="5" fill="#ED2D67" points="398.22,14.11 372.33,14.11 372.33,82.61 369.7,82.61 369.7,14.11 343.82,14.11 343.82,11.51 398.22,11.51 "/>
  </g>
 </g>
 <g id="Logo_x0020_Dark">
  <g id="_2223173777584">
   <polygon fill="#FEFEFE" points="477.41,76.36 511.1,76.36 511.1,84.06 467.98,84.06 467.98,12.96 477.41,12.96 "/>
   <path id="1" fill="#FEFEFE" d="M542.31 85.06c-7.15,0 -12.98,-2.35 -17.48,-7.05 -4.48,-4.72 -6.73,-11 -6.73,-18.89l0 -1.66c0,-5.24 1,-9.92 3,-14.04 2,-4.11 4.8,-7.35 8.4,-9.67 3.6,-2.33 7.5,-3.49 11.7,-3.49 6.86,0 12.2,2.26 16.01,6.78 3.8,4.53 5.72,11.02 5.72,19.45l0 3.77 -35.8 0c0.13,5.2 1.65,9.4 4.57,12.6 2.91,3.2 6.61,4.8 11.11,4.8 3.19,0 5.89,-0.65 8.1,-1.95 2.22,-1.3 4.15,-3.02 5.82,-5.15l5.52 4.3c-4.44,6.8 -11.09,10.2 -19.94,10.2zm-1.11 -47.4c-3.65,0 -6.7,1.33 -9.19,4 -2.46,2.66 -4,6.4 -4.58,11.2l26.47 0 0 -0.69c-0.27,-4.61 -1.5,-8.18 -3.72,-10.71 -2.22,-2.54 -5.22,-3.8 -8.98,-3.8z"/>
   <path id="2" fill="#FEFEFE" d="M583.2 84.06l-9.04 0 0 -52.8 9.04 0 0 52.8zm-9.77 -66.85c0,-1.47 0.45,-2.72 1.33,-3.74 0.9,-1.02 2.24,-1.51 3.98,-1.51 1.77,0 3.11,0.49 4.01,1.51 0.91,1.02 1.36,2.27 1.36,3.74 0,1.46 -0.45,2.7 -1.36,3.68 -0.9,0.98 -2.24,1.46 -4.01,1.46 -1.74,0 -3.08,-0.48 -3.98,-1.46 -0.88,-0.98 -1.33,-2.22 -1.33,-3.68z"/>
   <polygon id="3" fill="#FEFEFE" points="607.45,84.06 598.41,84.06 598.41,9.06 607.45,9.06 "/>
   <path id="4" fill="#FEFEFE" d="M619.5 57.17c0,-5.18 1.01,-9.83 3.05,-13.96 2.03,-4.15 4.86,-7.34 8.5,-9.59 3.61,-2.25 7.76,-3.36 12.41,-3.36 7.2,0 13.02,2.48 17.47,7.46 4.43,4.99 6.65,11.62 6.65,19.89l0 0.63c0,5.15 -0.98,9.77 -2.95,13.85 -1.97,4.08 -4.78,7.27 -8.45,9.55 -3.65,2.28 -7.87,3.42 -12.62,3.42 -7.16,0 -12.96,-2.49 -17.4,-7.47 -4.45,-4.98 -6.66,-11.58 -6.66,-19.78l0 -0.64zm9.08 1.05c0,5.85 1.35,10.57 4.07,14.12 2.71,3.55 6.36,5.32 10.91,5.32 4.59,0 8.24,-1.8 10.94,-5.4 2.7,-3.6 4.05,-8.64 4.05,-15.12 0,-5.8 -1.37,-10.48 -4.12,-14.08 -2.75,-3.6 -6.4,-5.4 -10.97,-5.4 -4.45,0 -8.05,1.76 -10.78,5.31 -2.73,3.55 -4.1,8.64 -4.1,15.25zm31.92 -47.42c0,3.51 -1,6.34 -3,8.51 -2.02,2.16 -4.52,3.25 -7.5,3.25 -1.34,0 -2.5,-0.17 -3.47,-0.49 -0.98,-0.32 -2.25,-0.98 -3.83,-1.98 -1.59,-1 -2.72,-1.62 -3.42,-1.82 -0.7,-0.21 -1.52,-0.31 -2.42,-0.31 -1.33,0 -2.48,0.49 -3.41,1.51 -0.95,1.02 -1.42,2.3 -1.42,3.89l-6.07 -0.34c0,-3.46 0.99,-6.31 2.97,-8.58 1.97,-2.25 4.47,-3.38 7.48,-3.38 1.15,0 2.17,0.16 3.09,0.49 0.91,0.34 2.15,0.99 3.71,1.95 1.55,0.97 2.75,1.61 3.59,1.91 0.83,0.3 1.75,0.45 2.75,0.45 1.4,0 2.56,-0.57 3.5,-1.7 0.93,-1.12 1.38,-2.44 1.38,-3.94l6.07 0.58z"/>
   <path id="5" fill="#FEFEFE" d="M700.86 85.06c-7.15,0 -12.98,-2.35 -17.48,-7.05 -4.48,-4.72 -6.73,-11 -6.73,-18.89l0 -1.66c0,-5.24 1,-9.92 3,-14.04 2,-4.11 4.8,-7.35 8.4,-9.67 3.6,-2.33 7.5,-3.49 11.7,-3.49 6.86,0 12.2,2.26 16.01,6.78 3.8,4.53 5.72,11.02 5.72,19.45l0 3.77 -35.8 0c0.13,5.2 1.65,9.4 4.57,12.6 2.91,3.2 6.61,4.8 11.11,4.8 3.19,0 5.89,-0.65 8.1,-1.95 2.22,-1.3 4.15,-3.02 5.82,-5.15l5.52 4.3c-4.44,6.8 -11.09,10.2 -19.94,10.2zm-1.11 -47.4c-3.65,0 -6.7,1.33 -9.19,4 -2.46,2.66 -4,6.4 -4.58,11.2l26.47 0 0 -0.69c-0.27,-4.61 -1.5,-8.18 -3.72,-10.71 -2.22,-2.54 -5.22,-3.8 -8.98,-3.8z"/>
   <path id="6" fill="#FEFEFE" d="M762.7 70.04c0,-2.43 -0.92,-4.33 -2.77,-5.67 -1.83,-1.35 -5.03,-2.51 -9.62,-3.5 -4.56,-0.96 -8.2,-2.15 -10.88,-3.51 -2.68,-1.37 -4.67,-2.99 -5.95,-4.89 -1.3,-1.88 -1.93,-4.13 -1.93,-6.73 0,-4.33 1.83,-8 5.48,-10.98 3.67,-3 8.35,-4.5 14.05,-4.5 5.98,0 10.85,1.54 14.57,4.63 3.73,3.1 5.6,7.05 5.6,11.87l-9.09 0c0,-2.49 -1.05,-4.62 -3.15,-6.42 -2.1,-1.78 -4.75,-2.68 -7.93,-2.68 -3.3,0 -5.87,0.71 -7.72,2.15 -1.87,1.43 -2.78,3.3 -2.78,5.61 0,2.19 0.87,3.82 2.58,4.94 1.74,1.1 4.85,2.16 9.35,3.16 4.52,1.02 8.17,2.22 10.97,3.62 2.8,1.4 4.87,3.1 6.22,5.07 1.35,1.96 2.03,4.36 2.03,7.21 0,4.72 -1.88,8.5 -5.67,11.35 -3.76,2.85 -8.66,4.29 -14.7,4.29 -4.23,0 -7.96,-0.75 -11.23,-2.25 -3.25,-1.5 -5.8,-3.59 -7.64,-6.27 -1.83,-2.68 -2.76,-5.6 -2.76,-8.72l9.03 0c0.17,3.02 1.38,5.42 3.65,7.19 2.25,1.76 5.25,2.65 8.95,2.65 3.42,0 6.17,-0.69 8.24,-2.07 2.06,-1.38 3.1,-3.23 3.1,-5.55z"/>
   <polygon fill="#ED2D67" points="21.45,11.51 50.7,78.76 80.05,11.51 83.9,11.51 83.9,82.61 81.27,82.61 81.27,15.41 51.78,82.61 49.68,82.61 20.33,15.76 20.33,82.61 17.7,82.61 17.7,11.51 "/>
   <path id="1" fill="#ED2D67" d="M141.77 61.31l-34.8 0 -7.92 21.3 -2.88 0 26.61 -71.1 3.22 0 26.62 71.1 -2.89 0 -7.96 -21.3zm-33.84 -2.6l32.87 0 -16.4 -44.04 -16.47 44.04z"/>
   <path id="2" fill="#ED2D67" d="M191.08 52.11l-24.65 0 0 30.5 -2.65 0 0 -71.1 22.67 0c7.13,0 12.8,1.83 17.02,5.5 4.21,3.68 6.31,8.66 6.31,14.96 0,4.84 -1.5,9.07 -4.51,12.69 -3.02,3.61 -6.85,5.86 -11.5,6.75l19 30.51 0 0.69 -2.79 0 -18.9 -30.5zm-24.65 -2.6l22.4 0c5.47,0 9.9,-1.67 13.27,-4.99 3.37,-3.31 5.05,-7.5 5.05,-12.55 0,-5.53 -1.87,-9.88 -5.58,-13.08 -3.74,-3.18 -8.84,-4.78 -15.32,-4.78l-19.82 0 0 35.4z"/>
   <polygon id="3" fill="#ED2D67" points="243.5,45.21 232.13,55.71 232.13,82.61 229.5,82.61 229.5,11.51 232.13,11.51 232.13,52.62 243.85,41.16 273.33,11.51 277.15,11.51 245.47,43.39 279.58,82.61 276.17,82.61 "/>
   <polygon id="4" fill="#ED2D67" points="331.23,47.31 295.6,47.31 295.6,80.01 336.22,80.01 336.22,82.61 292.95,82.61 292.95,11.51 336.22,11.51 336.22,14.11 295.6,14.11 295.6,44.71 331.23,44.71 "/>
   <polygon id="5" fill="#ED2D67" points="398.22,14.11 372.33,14.11 372.33,82.61 369.7,82.61 369.7,14.11 343.82,14.11 343.82,11.51 398.22,11.51 "/>
  </g>
 </g>
</svg>
